<mxfile host="app.diagrams.net" modified="2023-06-10T05:02:47.263Z" agent="Mozilla/5.0 (Windows NT 10.0; Win64; x64) AppleWebKit/537.36 (KHTML, like Gecko) Chrome/114.0.0.0 Safari/537.36" etag="UODD8dQT2Aj0Uxh_1ybW" version="21.1.9" type="github">
  <diagram id="C5RBs43oDa-KdzZeNtuy" name="Page-1">
    <mxGraphModel dx="1434" dy="708" grid="1" gridSize="10" guides="1" tooltips="1" connect="1" arrows="1" fold="1" page="1" pageScale="1" pageWidth="1200" pageHeight="1920" math="0" shadow="0">
      <root>
        <mxCell id="WIyWlLk6GJQsqaUBKTNV-0" />
        <mxCell id="WIyWlLk6GJQsqaUBKTNV-1" parent="WIyWlLk6GJQsqaUBKTNV-0" />
        <mxCell id="CeKVDYNegbZYkTcLywDy-12" style="edgeStyle=orthogonalEdgeStyle;rounded=0;sketch=1;hachureGap=4;jiggle=2;curveFitting=1;orthogonalLoop=1;jettySize=auto;html=1;fontFamily=Architects Daughter;fontSource=https%3A%2F%2Ffonts.googleapis.com%2Fcss%3Ffamily%3DArchitects%2BDaughter;fontSize=16;" edge="1" parent="WIyWlLk6GJQsqaUBKTNV-1" target="CeKVDYNegbZYkTcLywDy-11">
          <mxGeometry relative="1" as="geometry">
            <mxPoint x="605" y="270" as="sourcePoint" />
          </mxGeometry>
        </mxCell>
        <mxCell id="CeKVDYNegbZYkTcLywDy-14" value="定时任务获取未开始且的发券任务" style="edgeLabel;html=1;align=center;verticalAlign=middle;resizable=0;points=[];fontSize=20;fontFamily=Architects Daughter;" vertex="1" connectable="0" parent="CeKVDYNegbZYkTcLywDy-12">
          <mxGeometry x="-0.26" y="-5" relative="1" as="geometry">
            <mxPoint x="5" y="13" as="offset" />
          </mxGeometry>
        </mxCell>
        <mxCell id="CeKVDYNegbZYkTcLywDy-68" style="edgeStyle=orthogonalEdgeStyle;rounded=0;sketch=1;hachureGap=4;jiggle=2;curveFitting=1;orthogonalLoop=1;jettySize=auto;html=1;fontFamily=Architects Daughter;fontSource=https%3A%2F%2Ffonts.googleapis.com%2Fcss%3Ffamily%3DArchitects%2BDaughter;fontSize=16;" edge="1" parent="WIyWlLk6GJQsqaUBKTNV-1" source="CeKVDYNegbZYkTcLywDy-11" target="CeKVDYNegbZYkTcLywDy-67">
          <mxGeometry relative="1" as="geometry" />
        </mxCell>
        <mxCell id="CeKVDYNegbZYkTcLywDy-11" value="发券任务表" style="shape=datastore;whiteSpace=wrap;html=1;sketch=1;hachureGap=4;jiggle=2;curveFitting=1;fontFamily=Architects Daughter;fontSource=https%3A%2F%2Ffonts.googleapis.com%2Fcss%3Ffamily%3DArchitects%2BDaughter;fontSize=20;" vertex="1" parent="WIyWlLk6GJQsqaUBKTNV-1">
          <mxGeometry x="550" y="370" width="110" height="80" as="geometry" />
        </mxCell>
        <mxCell id="CeKVDYNegbZYkTcLywDy-18" style="edgeStyle=orthogonalEdgeStyle;rounded=0;sketch=1;hachureGap=4;jiggle=2;curveFitting=1;orthogonalLoop=1;jettySize=auto;html=1;exitX=0;exitY=0.5;exitDx=0;exitDy=0;entryX=0.575;entryY=-0.05;entryDx=0;entryDy=0;entryPerimeter=0;fontFamily=Architects Daughter;fontSource=https%3A%2F%2Ffonts.googleapis.com%2Fcss%3Ffamily%3DArchitects%2BDaughter;fontSize=16;" edge="1" parent="WIyWlLk6GJQsqaUBKTNV-1" source="CeKVDYNegbZYkTcLywDy-15" target="CeKVDYNegbZYkTcLywDy-17">
          <mxGeometry relative="1" as="geometry" />
        </mxCell>
        <mxCell id="CeKVDYNegbZYkTcLywDy-19" value="全部" style="edgeLabel;html=1;align=center;verticalAlign=middle;resizable=0;points=[];fontSize=20;fontFamily=Architects Daughter;" vertex="1" connectable="0" parent="CeKVDYNegbZYkTcLywDy-18">
          <mxGeometry x="0.417" y="1" relative="1" as="geometry">
            <mxPoint as="offset" />
          </mxGeometry>
        </mxCell>
        <mxCell id="CeKVDYNegbZYkTcLywDy-21" style="edgeStyle=orthogonalEdgeStyle;rounded=0;sketch=1;hachureGap=4;jiggle=2;curveFitting=1;orthogonalLoop=1;jettySize=auto;html=1;fontFamily=Architects Daughter;fontSource=https%3A%2F%2Ffonts.googleapis.com%2Fcss%3Ffamily%3DArchitects%2BDaughter;fontSize=16;" edge="1" parent="WIyWlLk6GJQsqaUBKTNV-1" source="CeKVDYNegbZYkTcLywDy-15" target="CeKVDYNegbZYkTcLywDy-20">
          <mxGeometry relative="1" as="geometry">
            <Array as="points">
              <mxPoint x="590" y="1000" />
              <mxPoint x="590" y="1000" />
            </Array>
          </mxGeometry>
        </mxCell>
        <mxCell id="CeKVDYNegbZYkTcLywDy-23" value="会员等级" style="edgeLabel;html=1;align=center;verticalAlign=middle;resizable=0;points=[];fontSize=20;fontFamily=Architects Daughter;" vertex="1" connectable="0" parent="CeKVDYNegbZYkTcLywDy-21">
          <mxGeometry x="-0.2182" y="1" relative="1" as="geometry">
            <mxPoint as="offset" />
          </mxGeometry>
        </mxCell>
        <mxCell id="CeKVDYNegbZYkTcLywDy-33" style="edgeStyle=orthogonalEdgeStyle;rounded=0;sketch=1;hachureGap=4;jiggle=2;curveFitting=1;orthogonalLoop=1;jettySize=auto;html=1;entryX=0.5;entryY=0;entryDx=0;entryDy=0;fontFamily=Architects Daughter;fontSource=https%3A%2F%2Ffonts.googleapis.com%2Fcss%3Ffamily%3DArchitects%2BDaughter;fontSize=16;" edge="1" parent="WIyWlLk6GJQsqaUBKTNV-1" source="CeKVDYNegbZYkTcLywDy-15" target="CeKVDYNegbZYkTcLywDy-30">
          <mxGeometry relative="1" as="geometry" />
        </mxCell>
        <mxCell id="CeKVDYNegbZYkTcLywDy-34" value="手机号" style="edgeLabel;html=1;align=center;verticalAlign=middle;resizable=0;points=[];fontSize=20;fontFamily=Architects Daughter;" vertex="1" connectable="0" parent="CeKVDYNegbZYkTcLywDy-33">
          <mxGeometry x="-0.1253" y="-4" relative="1" as="geometry">
            <mxPoint as="offset" />
          </mxGeometry>
        </mxCell>
        <mxCell id="CeKVDYNegbZYkTcLywDy-15" value="发放类型" style="rhombus;whiteSpace=wrap;html=1;sketch=1;hachureGap=4;jiggle=2;curveFitting=1;fontFamily=Architects Daughter;fontSource=https%3A%2F%2Ffonts.googleapis.com%2Fcss%3Ffamily%3DArchitects%2BDaughter;fontSize=20;" vertex="1" parent="WIyWlLk6GJQsqaUBKTNV-1">
          <mxGeometry x="535" y="860" width="110" height="80" as="geometry" />
        </mxCell>
        <mxCell id="CeKVDYNegbZYkTcLywDy-50" style="edgeStyle=orthogonalEdgeStyle;rounded=0;sketch=1;hachureGap=4;jiggle=2;curveFitting=1;orthogonalLoop=1;jettySize=auto;html=1;entryX=0;entryY=0.7;entryDx=0;entryDy=0;fontFamily=Architects Daughter;fontSource=https%3A%2F%2Ffonts.googleapis.com%2Fcss%3Ffamily%3DArchitects%2BDaughter;fontSize=16;" edge="1" parent="WIyWlLk6GJQsqaUBKTNV-1" source="CeKVDYNegbZYkTcLywDy-17">
          <mxGeometry relative="1" as="geometry">
            <mxPoint x="635" y="1256" as="targetPoint" />
            <Array as="points">
              <mxPoint x="405" y="1256" />
            </Array>
          </mxGeometry>
        </mxCell>
        <mxCell id="CeKVDYNegbZYkTcLywDy-17" value="获取店铺下的所有会员" style="rounded=0;whiteSpace=wrap;html=1;sketch=1;hachureGap=4;jiggle=2;curveFitting=1;fontFamily=Architects Daughter;fontSource=https%3A%2F%2Ffonts.googleapis.com%2Fcss%3Ffamily%3DArchitects%2BDaughter;fontSize=20;" vertex="1" parent="WIyWlLk6GJQsqaUBKTNV-1">
          <mxGeometry x="350" y="1010" width="125" height="60" as="geometry" />
        </mxCell>
        <mxCell id="CeKVDYNegbZYkTcLywDy-56" style="edgeStyle=orthogonalEdgeStyle;rounded=0;sketch=1;hachureGap=4;jiggle=2;curveFitting=1;orthogonalLoop=1;jettySize=auto;html=1;entryX=0.25;entryY=0;entryDx=0;entryDy=0;fontFamily=Architects Daughter;fontSource=https%3A%2F%2Ffonts.googleapis.com%2Fcss%3Ffamily%3DArchitects%2BDaughter;fontSize=16;" edge="1" parent="WIyWlLk6GJQsqaUBKTNV-1" source="CeKVDYNegbZYkTcLywDy-20" target="CeKVDYNegbZYkTcLywDy-55">
          <mxGeometry relative="1" as="geometry" />
        </mxCell>
        <mxCell id="CeKVDYNegbZYkTcLywDy-20" value="获取会员标签下的所有会员" style="rounded=0;whiteSpace=wrap;html=1;sketch=1;hachureGap=4;jiggle=2;curveFitting=1;fontFamily=Architects Daughter;fontSource=https%3A%2F%2Ffonts.googleapis.com%2Fcss%3Ffamily%3DArchitects%2BDaughter;fontSize=20;" vertex="1" parent="WIyWlLk6GJQsqaUBKTNV-1">
          <mxGeometry x="515" y="1010" width="145" height="60" as="geometry" />
        </mxCell>
        <mxCell id="CeKVDYNegbZYkTcLywDy-57" style="edgeStyle=orthogonalEdgeStyle;rounded=0;sketch=1;hachureGap=4;jiggle=2;curveFitting=1;orthogonalLoop=1;jettySize=auto;html=1;entryX=0.648;entryY=-0.017;entryDx=0;entryDy=0;entryPerimeter=0;fontFamily=Architects Daughter;fontSource=https%3A%2F%2Ffonts.googleapis.com%2Fcss%3Ffamily%3DArchitects%2BDaughter;fontSize=16;" edge="1" parent="WIyWlLk6GJQsqaUBKTNV-1" source="CeKVDYNegbZYkTcLywDy-22" target="CeKVDYNegbZYkTcLywDy-55">
          <mxGeometry relative="1" as="geometry" />
        </mxCell>
        <mxCell id="CeKVDYNegbZYkTcLywDy-22" value="获取标签下的所有会员" style="rounded=0;whiteSpace=wrap;html=1;sketch=1;hachureGap=4;jiggle=2;curveFitting=1;fontFamily=Architects Daughter;fontSource=https%3A%2F%2Ffonts.googleapis.com%2Fcss%3Ffamily%3DArchitects%2BDaughter;fontSize=20;" vertex="1" parent="WIyWlLk6GJQsqaUBKTNV-1">
          <mxGeometry x="720" y="1010" width="140" height="60" as="geometry" />
        </mxCell>
        <mxCell id="CeKVDYNegbZYkTcLywDy-28" style="edgeStyle=orthogonalEdgeStyle;rounded=0;sketch=1;hachureGap=4;jiggle=2;curveFitting=1;orthogonalLoop=1;jettySize=auto;html=1;entryX=0.6;entryY=-0.05;entryDx=0;entryDy=0;entryPerimeter=0;fontFamily=Architects Daughter;fontSource=https%3A%2F%2Ffonts.googleapis.com%2Fcss%3Ffamily%3DArchitects%2BDaughter;fontSize=16;exitX=0.573;exitY=0.963;exitDx=0;exitDy=0;exitPerimeter=0;" edge="1" parent="WIyWlLk6GJQsqaUBKTNV-1" source="CeKVDYNegbZYkTcLywDy-15" target="CeKVDYNegbZYkTcLywDy-22">
          <mxGeometry relative="1" as="geometry">
            <mxPoint x="886" y="833" as="sourcePoint" />
            <mxPoint x="770" y="940" as="targetPoint" />
            <Array as="points">
              <mxPoint x="791" y="937" />
            </Array>
          </mxGeometry>
        </mxCell>
        <mxCell id="CeKVDYNegbZYkTcLywDy-29" value="标签" style="edgeLabel;html=1;align=center;verticalAlign=middle;resizable=0;points=[];fontSize=20;fontFamily=Architects Daughter;" vertex="1" connectable="0" parent="CeKVDYNegbZYkTcLywDy-28">
          <mxGeometry x="0.417" y="1" relative="1" as="geometry">
            <mxPoint as="offset" />
          </mxGeometry>
        </mxCell>
        <mxCell id="CeKVDYNegbZYkTcLywDy-58" style="edgeStyle=orthogonalEdgeStyle;rounded=0;sketch=1;hachureGap=4;jiggle=2;curveFitting=1;orthogonalLoop=1;jettySize=auto;html=1;entryX=1;entryY=0.633;entryDx=0;entryDy=0;entryPerimeter=0;fontFamily=Architects Daughter;fontSource=https%3A%2F%2Ffonts.googleapis.com%2Fcss%3Ffamily%3DArchitects%2BDaughter;fontSize=16;" edge="1" parent="WIyWlLk6GJQsqaUBKTNV-1" source="CeKVDYNegbZYkTcLywDy-30" target="CeKVDYNegbZYkTcLywDy-55">
          <mxGeometry relative="1" as="geometry">
            <Array as="points">
              <mxPoint x="885" y="1040" />
              <mxPoint x="885" y="1268" />
            </Array>
          </mxGeometry>
        </mxCell>
        <mxCell id="CeKVDYNegbZYkTcLywDy-30" value="获取手机号" style="rounded=0;whiteSpace=wrap;html=1;sketch=1;hachureGap=4;jiggle=2;curveFitting=1;fontFamily=Architects Daughter;fontSource=https%3A%2F%2Ffonts.googleapis.com%2Fcss%3Ffamily%3DArchitects%2BDaughter;fontSize=20;" vertex="1" parent="WIyWlLk6GJQsqaUBKTNV-1">
          <mxGeometry x="920" y="1010" width="140" height="60" as="geometry" />
        </mxCell>
        <mxCell id="CeKVDYNegbZYkTcLywDy-35" value="开始" style="strokeWidth=2;html=1;shape=mxgraph.flowchart.start_1;whiteSpace=wrap;sketch=1;hachureGap=4;jiggle=2;curveFitting=1;fontFamily=Architects Daughter;fontSource=https%3A%2F%2Ffonts.googleapis.com%2Fcss%3Ffamily%3DArchitects%2BDaughter;fontSize=20;" vertex="1" parent="WIyWlLk6GJQsqaUBKTNV-1">
          <mxGeometry x="560" y="210" width="100" height="60" as="geometry" />
        </mxCell>
        <mxCell id="CeKVDYNegbZYkTcLywDy-45" style="edgeStyle=orthogonalEdgeStyle;rounded=0;sketch=1;hachureGap=4;jiggle=2;curveFitting=1;orthogonalLoop=1;jettySize=auto;html=1;entryX=0.5;entryY=0;entryDx=0;entryDy=0;fontFamily=Architects Daughter;fontSource=https%3A%2F%2Ffonts.googleapis.com%2Fcss%3Ffamily%3DArchitects%2BDaughter;fontSize=16;" edge="1" parent="WIyWlLk6GJQsqaUBKTNV-1" source="CeKVDYNegbZYkTcLywDy-36" target="CeKVDYNegbZYkTcLywDy-15">
          <mxGeometry relative="1" as="geometry" />
        </mxCell>
        <mxCell id="CeKVDYNegbZYkTcLywDy-36" value="先将发券任务更新为进行中,更新失败则无法执行,防止重复扫描" style="rounded=0;whiteSpace=wrap;html=1;sketch=1;hachureGap=4;jiggle=2;curveFitting=1;fontFamily=Architects Daughter;fontSource=https%3A%2F%2Ffonts.googleapis.com%2Fcss%3Ffamily%3DArchitects%2BDaughter;fontSize=20;" vertex="1" parent="WIyWlLk6GJQsqaUBKTNV-1">
          <mxGeometry x="496.25" y="700" width="187.5" height="80" as="geometry" />
        </mxCell>
        <mxCell id="CeKVDYNegbZYkTcLywDy-60" style="edgeStyle=orthogonalEdgeStyle;rounded=0;sketch=1;hachureGap=4;jiggle=2;curveFitting=1;orthogonalLoop=1;jettySize=auto;html=1;fontFamily=Architects Daughter;fontSource=https%3A%2F%2Ffonts.googleapis.com%2Fcss%3Ffamily%3DArchitects%2BDaughter;fontSize=16;" edge="1" parent="WIyWlLk6GJQsqaUBKTNV-1" source="CeKVDYNegbZYkTcLywDy-55" target="CeKVDYNegbZYkTcLywDy-59">
          <mxGeometry relative="1" as="geometry" />
        </mxCell>
        <mxCell id="CeKVDYNegbZYkTcLywDy-61" value="插入到任务详情表中" style="edgeLabel;html=1;align=center;verticalAlign=middle;resizable=0;points=[];fontSize=20;fontFamily=Architects Daughter;" vertex="1" connectable="0" parent="CeKVDYNegbZYkTcLywDy-60">
          <mxGeometry x="-0.3125" y="1" relative="1" as="geometry">
            <mxPoint x="-1" y="16" as="offset" />
          </mxGeometry>
        </mxCell>
        <mxCell id="CeKVDYNegbZYkTcLywDy-55" value="生成发券任务详情" style="rounded=0;whiteSpace=wrap;html=1;sketch=1;hachureGap=4;jiggle=2;curveFitting=1;fontFamily=Architects Daughter;fontSource=https%3A%2F%2Ffonts.googleapis.com%2Fcss%3Ffamily%3DArchitects%2BDaughter;fontSize=20;" vertex="1" parent="WIyWlLk6GJQsqaUBKTNV-1">
          <mxGeometry x="635" y="1230" width="145" height="60" as="geometry" />
        </mxCell>
        <mxCell id="CeKVDYNegbZYkTcLywDy-65" style="edgeStyle=orthogonalEdgeStyle;rounded=0;sketch=1;hachureGap=4;jiggle=2;curveFitting=1;orthogonalLoop=1;jettySize=auto;html=1;entryX=0;entryY=0.5;entryDx=0;entryDy=0;fontFamily=Architects Daughter;fontSource=https%3A%2F%2Ffonts.googleapis.com%2Fcss%3Ffamily%3DArchitects%2BDaughter;fontSize=16;" edge="1" parent="WIyWlLk6GJQsqaUBKTNV-1" source="CeKVDYNegbZYkTcLywDy-59" target="CeKVDYNegbZYkTcLywDy-64">
          <mxGeometry relative="1" as="geometry" />
        </mxCell>
        <mxCell id="CeKVDYNegbZYkTcLywDy-59" value="发券任务详情表" style="shape=datastore;whiteSpace=wrap;html=1;sketch=1;hachureGap=4;jiggle=2;curveFitting=1;fontFamily=Architects Daughter;fontSource=https%3A%2F%2Ffonts.googleapis.com%2Fcss%3Ffamily%3DArchitects%2BDaughter;fontSize=20;" vertex="1" parent="WIyWlLk6GJQsqaUBKTNV-1">
          <mxGeometry x="652.5" y="1390" width="110" height="80" as="geometry" />
        </mxCell>
        <mxCell id="CeKVDYNegbZYkTcLywDy-76" style="edgeStyle=orthogonalEdgeStyle;rounded=0;sketch=1;hachureGap=4;jiggle=2;curveFitting=1;orthogonalLoop=1;jettySize=auto;html=1;fontFamily=Architects Daughter;fontSource=https%3A%2F%2Ffonts.googleapis.com%2Fcss%3Ffamily%3DArchitects%2BDaughter;fontSize=16;" edge="1" parent="WIyWlLk6GJQsqaUBKTNV-1" source="CeKVDYNegbZYkTcLywDy-64">
          <mxGeometry relative="1" as="geometry">
            <mxPoint x="1080" y="1430" as="targetPoint" />
          </mxGeometry>
        </mxCell>
        <mxCell id="CeKVDYNegbZYkTcLywDy-64" value="发券" style="rounded=0;whiteSpace=wrap;html=1;sketch=1;hachureGap=4;jiggle=2;curveFitting=1;fontFamily=Architects Daughter;fontSource=https%3A%2F%2Ffonts.googleapis.com%2Fcss%3Ffamily%3DArchitects%2BDaughter;fontSize=20;" vertex="1" parent="WIyWlLk6GJQsqaUBKTNV-1">
          <mxGeometry x="860" y="1400" width="145" height="60" as="geometry" />
        </mxCell>
        <mxCell id="CeKVDYNegbZYkTcLywDy-85" style="edgeStyle=orthogonalEdgeStyle;rounded=0;sketch=1;hachureGap=4;jiggle=2;curveFitting=1;orthogonalLoop=1;jettySize=auto;html=1;fontFamily=Architects Daughter;fontSource=https%3A%2F%2Ffonts.googleapis.com%2Fcss%3Ffamily%3DArchitects%2BDaughter;fontSize=16;" edge="1" parent="WIyWlLk6GJQsqaUBKTNV-1" source="CeKVDYNegbZYkTcLywDy-66" target="CeKVDYNegbZYkTcLywDy-84">
          <mxGeometry relative="1" as="geometry" />
        </mxCell>
        <mxCell id="CeKVDYNegbZYkTcLywDy-86" value="发券全部结束,更新发券任务为成功状态" style="edgeLabel;html=1;align=center;verticalAlign=middle;resizable=0;points=[];fontSize=20;fontFamily=Architects Daughter;" vertex="1" connectable="0" parent="CeKVDYNegbZYkTcLywDy-85">
          <mxGeometry x="-0.1733" y="-4" relative="1" as="geometry">
            <mxPoint x="-3" y="12" as="offset" />
          </mxGeometry>
        </mxCell>
        <mxCell id="CeKVDYNegbZYkTcLywDy-66" value="更新发券记录状态" style="rounded=0;whiteSpace=wrap;html=1;sketch=1;hachureGap=4;jiggle=2;curveFitting=1;fontFamily=Architects Daughter;fontSource=https%3A%2F%2Ffonts.googleapis.com%2Fcss%3Ffamily%3DArchitects%2BDaughter;fontSize=20;" vertex="1" parent="WIyWlLk6GJQsqaUBKTNV-1">
          <mxGeometry x="1085" y="1400" width="145" height="60" as="geometry" />
        </mxCell>
        <mxCell id="CeKVDYNegbZYkTcLywDy-71" style="edgeStyle=orthogonalEdgeStyle;rounded=0;sketch=1;hachureGap=4;jiggle=2;curveFitting=1;orthogonalLoop=1;jettySize=auto;html=1;entryX=0.575;entryY=-0.025;entryDx=0;entryDy=0;entryPerimeter=0;fontFamily=Architects Daughter;fontSource=https%3A%2F%2Ffonts.googleapis.com%2Fcss%3Ffamily%3DArchitects%2BDaughter;fontSize=16;" edge="1" parent="WIyWlLk6GJQsqaUBKTNV-1" source="CeKVDYNegbZYkTcLywDy-67" target="CeKVDYNegbZYkTcLywDy-36">
          <mxGeometry relative="1" as="geometry" />
        </mxCell>
        <mxCell id="CeKVDYNegbZYkTcLywDy-74" style="edgeStyle=orthogonalEdgeStyle;rounded=0;sketch=1;hachureGap=4;jiggle=2;curveFitting=1;orthogonalLoop=1;jettySize=auto;html=1;entryX=0;entryY=0.5;entryDx=0;entryDy=0;fontFamily=Architects Daughter;fontSource=https%3A%2F%2Ffonts.googleapis.com%2Fcss%3Ffamily%3DArchitects%2BDaughter;fontSize=16;" edge="1" parent="WIyWlLk6GJQsqaUBKTNV-1" source="CeKVDYNegbZYkTcLywDy-67" target="CeKVDYNegbZYkTcLywDy-72">
          <mxGeometry relative="1" as="geometry" />
        </mxCell>
        <mxCell id="CeKVDYNegbZYkTcLywDy-67" value="优惠券模板已停用/过期" style="rhombus;whiteSpace=wrap;html=1;sketch=1;hachureGap=4;jiggle=2;curveFitting=1;fontFamily=Architects Daughter;fontSource=https%3A%2F%2Ffonts.googleapis.com%2Fcss%3Ffamily%3DArchitects%2BDaughter;fontSize=20;" vertex="1" parent="WIyWlLk6GJQsqaUBKTNV-1">
          <mxGeometry x="470" y="500" width="270" height="120" as="geometry" />
        </mxCell>
        <mxCell id="CeKVDYNegbZYkTcLywDy-75" style="edgeStyle=orthogonalEdgeStyle;rounded=0;sketch=1;hachureGap=4;jiggle=2;curveFitting=1;orthogonalLoop=1;jettySize=auto;html=1;entryX=1;entryY=0.5;entryDx=0;entryDy=0;fontFamily=Architects Daughter;fontSource=https%3A%2F%2Ffonts.googleapis.com%2Fcss%3Ffamily%3DArchitects%2BDaughter;fontSize=16;" edge="1" parent="WIyWlLk6GJQsqaUBKTNV-1" source="CeKVDYNegbZYkTcLywDy-69" target="CeKVDYNegbZYkTcLywDy-11">
          <mxGeometry relative="1" as="geometry">
            <Array as="points">
              <mxPoint x="1100" y="410" />
            </Array>
          </mxGeometry>
        </mxCell>
        <mxCell id="CeKVDYNegbZYkTcLywDy-69" value="跳过" style="strokeWidth=2;html=1;shape=mxgraph.flowchart.terminator;whiteSpace=wrap;sketch=1;hachureGap=4;jiggle=2;curveFitting=1;fontFamily=Architects Daughter;fontSource=https%3A%2F%2Ffonts.googleapis.com%2Fcss%3Ffamily%3DArchitects%2BDaughter;fontSize=20;" vertex="1" parent="WIyWlLk6GJQsqaUBKTNV-1">
          <mxGeometry x="1050" y="530" width="100" height="60" as="geometry" />
        </mxCell>
        <mxCell id="CeKVDYNegbZYkTcLywDy-73" style="edgeStyle=orthogonalEdgeStyle;rounded=0;sketch=1;hachureGap=4;jiggle=2;curveFitting=1;orthogonalLoop=1;jettySize=auto;html=1;fontFamily=Architects Daughter;fontSource=https%3A%2F%2Ffonts.googleapis.com%2Fcss%3Ffamily%3DArchitects%2BDaughter;fontSize=16;" edge="1" parent="WIyWlLk6GJQsqaUBKTNV-1" source="CeKVDYNegbZYkTcLywDy-72" target="CeKVDYNegbZYkTcLywDy-69">
          <mxGeometry relative="1" as="geometry" />
        </mxCell>
        <mxCell id="CeKVDYNegbZYkTcLywDy-72" value="更新任务状态为过期/停用" style="rounded=0;whiteSpace=wrap;html=1;sketch=1;hachureGap=4;jiggle=2;curveFitting=1;fontFamily=Architects Daughter;fontSource=https%3A%2F%2Ffonts.googleapis.com%2Fcss%3Ffamily%3DArchitects%2BDaughter;fontSize=20;" vertex="1" parent="WIyWlLk6GJQsqaUBKTNV-1">
          <mxGeometry x="790" y="520" width="187.5" height="80" as="geometry" />
        </mxCell>
        <mxCell id="CeKVDYNegbZYkTcLywDy-79" value="如果有发放人数限制,那么获取前N个" style="text;html=1;strokeColor=#d6b656;fillColor=#fff2cc;align=center;verticalAlign=middle;whiteSpace=wrap;rounded=0;fontSize=20;fontFamily=Architects Daughter;" vertex="1" parent="WIyWlLk6GJQsqaUBKTNV-1">
          <mxGeometry x="420" y="1260" width="200" height="60" as="geometry" />
        </mxCell>
        <mxCell id="CeKVDYNegbZYkTcLywDy-92" style="edgeStyle=orthogonalEdgeStyle;rounded=0;sketch=1;hachureGap=4;jiggle=2;curveFitting=1;orthogonalLoop=1;jettySize=auto;html=1;fontFamily=Architects Daughter;fontSource=https%3A%2F%2Ffonts.googleapis.com%2Fcss%3Ffamily%3DArchitects%2BDaughter;fontSize=16;" edge="1" parent="WIyWlLk6GJQsqaUBKTNV-1" source="CeKVDYNegbZYkTcLywDy-84" target="CeKVDYNegbZYkTcLywDy-90">
          <mxGeometry relative="1" as="geometry" />
        </mxCell>
        <mxCell id="CeKVDYNegbZYkTcLywDy-84" value="发券任务表" style="shape=datastore;whiteSpace=wrap;html=1;sketch=1;hachureGap=4;jiggle=2;curveFitting=1;fontFamily=Architects Daughter;fontSource=https%3A%2F%2Ffonts.googleapis.com%2Fcss%3Ffamily%3DArchitects%2BDaughter;fontSize=20;" vertex="1" parent="WIyWlLk6GJQsqaUBKTNV-1">
          <mxGeometry x="1102.5" y="1600" width="110" height="80" as="geometry" />
        </mxCell>
        <mxCell id="CeKVDYNegbZYkTcLywDy-87" value="结束" style="strokeWidth=2;html=1;shape=mxgraph.flowchart.terminator;whiteSpace=wrap;sketch=1;hachureGap=4;jiggle=2;curveFitting=1;fontFamily=Architects Daughter;fontSource=https%3A%2F%2Ffonts.googleapis.com%2Fcss%3Ffamily%3DArchitects%2BDaughter;fontSize=20;" vertex="1" parent="WIyWlLk6GJQsqaUBKTNV-1">
          <mxGeometry x="662.5" y="1610" width="100" height="60" as="geometry" />
        </mxCell>
        <mxCell id="CeKVDYNegbZYkTcLywDy-94" style="edgeStyle=orthogonalEdgeStyle;rounded=0;sketch=1;hachureGap=4;jiggle=2;curveFitting=1;orthogonalLoop=1;jettySize=auto;html=1;entryX=1;entryY=0.5;entryDx=0;entryDy=0;entryPerimeter=0;fontFamily=Architects Daughter;fontSource=https%3A%2F%2Ffonts.googleapis.com%2Fcss%3Ffamily%3DArchitects%2BDaughter;fontSize=16;" edge="1" parent="WIyWlLk6GJQsqaUBKTNV-1" source="CeKVDYNegbZYkTcLywDy-90" target="CeKVDYNegbZYkTcLywDy-87">
          <mxGeometry relative="1" as="geometry" />
        </mxCell>
        <mxCell id="CeKVDYNegbZYkTcLywDy-90" value="短信/微信通知" style="rounded=0;whiteSpace=wrap;html=1;sketch=1;hachureGap=4;jiggle=2;curveFitting=1;fontFamily=Architects Daughter;fontSource=https%3A%2F%2Ffonts.googleapis.com%2Fcss%3Ffamily%3DArchitects%2BDaughter;fontSize=20;" vertex="1" parent="WIyWlLk6GJQsqaUBKTNV-1">
          <mxGeometry x="860" y="1610" width="145" height="60" as="geometry" />
        </mxCell>
      </root>
    </mxGraphModel>
  </diagram>
</mxfile>
